<?xml version="1.0" standalone="no"?>
<!DOCTYPE svg PUBLIC "-//W3C//DTD SVG 20010904//EN"
 "http://www.w3.org/TR/2001/REC-SVG-20010904/DTD/svg10.dtd">
<svg version="1.0" xmlns="http://www.w3.org/2000/svg"
 width="820.000000pt" height="248.000000pt" viewBox="0 0 820.000000 248.000000"
 preserveAspectRatio="xMidYMid meet">

<g transform="translate(0.000000,248.000000) scale(0.100000,-0.100000)"
fill="#000000" stroke="none">
<path d="M2665 1949 c-187 -71 -455 -170 -595 -220 -140 -50 -320 -116 -400
-146 -80 -30 -323 -119 -542 -198 l-396 -145 -163 60 c-90 33 -171 60 -180 60
-12 0 -20 -16 -29 -60 -7 -32 -10 -65 -7 -72 2 -7 32 -24 66 -37 33 -13 61
-27 61 -31 0 -4 -25 -18 -56 -30 -42 -18 -54 -26 -49 -39 4 -9 16 -40 27 -68
12 -29 27 -53 34 -53 8 0 75 27 151 60 75 33 145 60 154 60 20 0 755 -220
1634 -490 308 -95 582 -179 608 -187 27 -8 51 -12 54 -9 3 3 0 8 -8 11 -8 2
-140 49 -294 104 -644 228 -1764 638 -1777 650 -4 3 52 33 125 65 525 232
1081 471 1479 637 416 173 500 211 456 208 -7 0 -166 -59 -353 -130z"/>
<path d="M3183 1973 c-12 -2 -27 -12 -35 -20 -11 -15 -11 -16 5 -10 10 4 41 7
69 7 44 0 49 2 38 15 -12 15 -32 17 -77 8z"/>
<path d="M3085 1940 c-3 -5 1 -10 9 -10 8 0 18 5 21 10 3 6 -1 10 -9 10 -8 0
-18 -4 -21 -10z"/>
<path d="M3185 1930 c-4 -6 7 -10 24 -10 17 0 31 5 31 10 0 6 -11 10 -24 10
-14 0 -28 -4 -31 -10z"/>
<path d="M3018 1923 c6 -2 18 -2 25 0 6 3 1 5 -13 5 -14 0 -19 -2 -12 -5z"/>
<path d="M3095 1903 c-11 -3 -24 -10 -30 -15 -12 -13 35 0 50 13 5 5 7 8 5 8
-3 -1 -14 -3 -25 -6z"/>
<path d="M3054 1852 c-10 -9 -50 -30 -89 -46 -38 -16 -90 -40 -115 -54 -53
-29 -150 -109 -150 -123 0 -6 5 -7 11 -3 7 4 1 -7 -12 -25 -26 -35 -35 -41
-19 -11 24 44 -1 16 -49 -56 -40 -59 -51 -71 -52 -52 -1 17 -3 18 -6 5 -2 -9
-9 -15 -13 -12 -5 3 -5 16 0 31 13 33 13 32 -7 30 -14 -1 -17 5 -15 26 5 48
-24 22 -51 -45 -49 -122 -67 -200 -69 -287 -1 -67 -2 -77 -8 -45 -7 38 -7 36
-9 -20 -3 -124 36 -237 124 -360 56 -79 217 -234 280 -271 45 -26 58 -29 136
-28 94 1 117 11 150 61 31 46 25 97 -17 142 -33 37 -117 81 -130 68 -3 -3 -24
1 -46 9 -21 7 -42 13 -46 12 -4 -1 -18 3 -32 9 -14 6 -32 14 -41 16 -9 3 -37
33 -63 67 -49 64 -76 115 -38 70 13 -15 21 -20 22 -11 0 11 3 11 15 1 8 -7 15
-17 15 -22 0 -6 -7 -5 -15 2 -10 9 -15 9 -15 1 0 -9 14 -15 23 -9 1 1 23 -10
48 -25 65 -38 70 -34 19 19 -25 26 -39 44 -32 40 19 -11 15 -1 -22 56 -44 70
-49 88 -50 185 -1 46 -6 87 -12 93 -8 8 -9 24 -3 49 11 51 46 131 57 131 5 0
17 17 28 38 10 20 38 58 62 84 44 49 57 95 25 84 -10 -3 0 10 22 30 51 46 132
87 154 79 12 -5 9 -10 -16 -20 -41 -18 -43 -29 -3 -20 20 4 30 3 30 -5 0 -8 9
-10 27 -5 40 10 29 2 -77 -51 -151 -75 -246 -188 -264 -314 -8 -59 6 -37 35
53 56 173 297 318 509 305 108 -7 222 -60 280 -131 80 -99 135 -240 124 -319
-4 -29 -3 -39 4 -29 12 17 7 -99 -8 -165 -11 -48 -65 -174 -75 -174 -3 0 -1 9
5 21 15 28 40 99 35 99 -3 0 -19 -28 -36 -62 -17 -35 -42 -77 -55 -95 -26 -35
-31 -48 -12 -37 6 4 5 -2 -4 -14 -20 -29 -117 -113 -162 -141 -20 -13 -36 -24
-36 -27 0 -9 37 3 60 19 13 9 29 17 34 17 5 0 -10 -14 -32 -30 -56 -40 -53
-48 6 -16 l47 26 -30 -25 c-16 -14 -33 -25 -37 -25 -5 0 -8 -4 -8 -9 0 -6 16
-3 36 5 58 24 50 10 -21 -36 -70 -46 -79 -60 -23 -37 23 10 40 11 51 5 21 -11
101 27 91 44 -4 7 -3 8 5 4 7 -5 29 3 52 18 21 15 39 23 39 20 0 -4 8 0 18 7
9 7 0 -5 -21 -28 -21 -22 -68 -57 -103 -78 -35 -21 -61 -41 -58 -46 3 -5 -2
-6 -10 -3 -9 3 -16 2 -16 -4 0 -6 -15 -14 -32 -18 -18 -4 -27 -9 -20 -12 27
-9 180 48 242 90 34 24 73 50 86 58 33 21 126 141 163 209 36 68 77 212 86
304 4 37 12 67 17 67 5 0 6 5 3 11 -12 19 86 150 125 167 37 16 268 30 314 18
20 -5 25 -15 36 -71 7 -38 9 -84 5 -108 -4 -23 -9 -55 -11 -72 -2 -16 -8 -63
-14 -103 -5 -40 -10 -108 -10 -151 0 -43 -3 -81 -6 -84 -4 -4 -8 -39 -9 -79
-1 -40 -5 -81 -10 -92 -6 -14 -5 -18 6 -14 27 9 53 98 50 175 -3 88 15 256 36
338 8 33 19 83 24 111 5 28 16 64 24 80 8 16 15 38 15 48 0 18 6 18 88 11 108
-9 196 -9 242 1 33 6 59 24 98 67 9 9 22 17 28 17 19 0 39 29 27 41 -5 5 -59
12 -119 14 -60 3 -213 15 -340 26 -237 22 -344 20 -344 -5 0 -8 -22 -22 -48
-33 -44 -19 -121 -94 -122 -119 0 -5 -14 -22 -30 -38 -17 -16 -38 -47 -47 -69
-17 -37 -18 -38 -24 -16 -4 13 -7 38 -8 55 -2 48 -49 202 -83 269 -16 33 -46
82 -66 108 -42 55 -113 112 -122 97 -4 -6 -22 -1 -45 12 -22 11 -56 27 -75 35
-34 13 -34 13 -14 -4 12 -10 45 -36 73 -58 28 -22 65 -60 83 -85 l32 -45 -69
63 c-80 71 -197 134 -295 157 -36 8 -110 15 -166 15 -82 0 -104 -3 -120 -18z
m283 -38 c-3 -3 -12 -4 -19 -1 -8 3 -5 6 6 6 11 1 17 -2 13 -5z m40 -10 c-3
-3 -12 -4 -19 -1 -8 3 -5 6 6 6 11 1 17 -2 13 -5z m143 -70 c0 -2 -9 0 -20 6
-11 6 -20 13 -20 16 0 2 9 0 20 -6 11 -6 20 -13 20 -16z m-877 -229 c-15 -30
-29 -53 -31 -51 -4 5 46 106 53 106 3 0 -7 -25 -22 -55z m2182 -59 c7 -9 21
-16 31 -16 17 -1 18 -1 2 -11 -22 -12 -68 -1 -68 17 0 13 -62 19 -165 15 -16
-1 -37 3 -45 9 -11 8 20 10 109 7 101 -3 126 -7 136 -21z m-2398 -358 c-3 -8
-6 -5 -6 6 -1 11 2 17 5 13 3 -3 4 -12 1 -19z m1019 -523 c-11 -8 -25 -15 -30
-15 -6 1 0 7 14 15 32 19 40 18 16 0z"/>
<path d="M2805 1823 c-46 -29 -132 -109 -147 -138 -10 -19 -10 -19 8 -5 10 8
46 39 79 70 33 31 71 64 84 73 40 27 20 27 -24 0z"/>
<path d="M2656 1757 c-13 -10 -17 -20 -12 -32 6 -17 8 -17 22 4 20 29 14 46
-10 28z"/>
<path d="M7356 1485 c-37 -35 -63 -64 -58 -66 17 -6 21 -129 6 -179 -7 -25
-20 -83 -29 -130 -9 -47 -20 -94 -25 -105 -5 -11 -16 -42 -23 -70 -8 -27 -26
-75 -39 -105 -44 -102 -53 -139 -37 -154 18 -17 100 -44 160 -52 41 -6 49 -3
81 25 109 95 278 364 278 441 0 9 12 23 26 30 22 12 27 12 35 0 5 -8 7 -24 4
-35 -3 -11 -8 -108 -11 -215 -3 -107 -10 -212 -14 -232 -4 -21 -4 -38 1 -38
20 0 31 50 31 143 0 55 6 125 13 156 12 51 26 174 41 356 3 38 10 73 16 76 5
4 8 22 7 40 -2 19 2 58 10 87 7 29 10 56 6 60 -3 4 -23 -13 -43 -38 -40 -48
-83 -177 -77 -230 3 -21 -1 -31 -14 -35 -10 -3 -23 -20 -29 -38 -57 -169 -103
-267 -151 -321 -52 -57 -89 -70 -159 -55 -105 21 -109 29 -61 135 17 38 35 78
39 89 20 46 89 294 111 399 12 55 5 112 -14 119 -7 3 -43 -23 -81 -58z"/>
<path d="M5525 1516 c-48 -13 -270 -123 -284 -140 -8 -10 1 -11 37 -5 26 4 57
10 68 14 35 11 76 -54 104 -163 l11 -44 -106 -157 c-64 -96 -103 -164 -100
-173 7 -17 -18 -41 -43 -43 -10 -1 -57 -30 -106 -65 -87 -62 -88 -64 -68 -80
18 -15 51 -18 109 -11 6 0 9 10 6 21 -11 41 16 18 42 -35 29 -58 39 -69 30
-33 -9 34 20 199 36 209 8 5 11 9 7 9 -5 0 26 53 68 118 42 64 88 135 102 157
l26 40 7 -40 c4 -22 10 -74 14 -115 3 -41 7 -97 10 -125 5 -68 37 -165 53
-165 8 0 16 -8 19 -18 5 -22 53 -52 82 -52 11 0 53 16 93 35 54 25 92 54 146
108 89 90 104 131 65 173 -13 15 -29 38 -34 52 -8 22 -12 23 -24 11 -7 -8 -28
-60 -45 -116 -17 -57 -36 -105 -41 -109 -6 -3 -20 1 -33 9 -46 31 -54 67 -65
316 -6 128 -15 239 -20 245 -6 7 -12 27 -14 46 -5 46 -30 93 -63 119 -29 23
-32 23 -89 7z"/>
<path d="M6127 1513 c-11 -11 -17 -13 -17 -5 0 7 -4 12 -10 12 -5 0 -10 -11
-10 -25 0 -19 -5 -25 -21 -25 -15 0 -19 -4 -14 -19 3 -11 0 -23 -6 -27 -8 -5
-10 -3 -4 7 5 8 -1 5 -13 -5 -14 -12 -20 -26 -16 -38 4 -13 -1 -21 -18 -27
-21 -9 -21 -10 9 -10 31 -1 32 -3 30 -40 -1 -25 5 -47 15 -58 12 -14 17 -42
18 -113 3 -113 -1 -161 -29 -339 -25 -162 -26 -172 -7 -146 7 11 25 98 39 194
14 95 28 176 31 179 3 3 14 -2 23 -10 10 -9 27 -18 38 -22 11 -3 30 -21 42
-40 12 -19 47 -51 77 -71 30 -19 60 -42 66 -50 7 -8 21 -15 31 -15 10 0 36
-18 58 -40 22 -22 45 -41 53 -41 48 -5 70 -4 74 3 9 15 51 8 75 -11 l24 -20
-36 8 c-21 5 -42 5 -49 1 -19 -12 3 -21 66 -25 32 -2 62 -9 67 -14 6 -6 4 -9
-4 -8 -60 2 -48 -8 16 -15 44 -5 92 -10 106 -12 14 -1 32 -7 40 -12 11 -6 7
-10 -16 -15 -23 -5 -16 -7 28 -8 44 -1 66 -7 85 -22 l27 -21 -39 4 c-33 4 -36
3 -20 -9 18 -13 48 -17 94 -13 27 3 84 3 165 1 76 -3 348 9 368 15 45 14 1 19
-178 19 -132 0 -198 4 -203 11 -4 6 -25 17 -47 24 -61 19 -258 101 -273 113
-7 5 -11 16 -8 22 4 12 -33 35 -58 35 -7 0 -21 9 -32 21 -23 25 -130 101 -164
116 -32 13 -323 263 -316 271 3 3 19 5 35 4 19 0 28 4 25 11 -4 12 47 47 69
47 7 0 26 7 42 16 22 11 68 16 178 19 81 2 153 8 160 14 7 5 35 39 62 75 28
36 57 66 65 66 24 1 -31 40 -57 40 -12 0 -34 -5 -48 -12 -18 -8 -31 -8 -49 0
-19 8 -27 8 -35 -2 -7 -8 -26 -16 -44 -20 -37 -7 -244 -107 -302 -146 -22 -15
-51 -34 -65 -43 -14 -9 -35 -24 -48 -33 -21 -16 -24 -16 -43 2 -21 19 -22 19
-37 -4 -24 -36 -72 -96 -72 -89 0 3 9 56 19 119 30 175 36 268 19 268 -7 0
-21 -8 -31 -17z m378 -623 c3 -5 2 -10 -4 -10 -5 0 -13 5 -16 10 -3 6 -2 10 4
10 5 0 13 -4 16 -10z m120 0 c3 -6 -1 -7 -9 -4 -18 7 -21 14 -7 14 6 0 13 -4
16 -10z m88 -45 c51 -36 46 -40 -12 -11 -27 14 -52 22 -56 18 -5 -4 -5 -1 -1
6 11 18 27 15 69 -13z m-73 -5 c9 -8 25 -21 36 -28 17 -12 17 -12 1 -8 -10 4
-15 2 -12 -4 3 -6 18 -10 33 -10 15 0 36 -7 46 -15 17 -13 17 -15 3 -15 -30 0
-97 32 -97 46 0 7 -13 20 -30 29 -16 9 -30 18 -30 21 0 10 34 -1 50 -16z m-10
-30 c0 -5 -5 -10 -11 -10 -5 0 -7 5 -4 10 3 6 8 10 11 10 2 0 4 -4 4 -10z"/>
<path d="M3642 1240 c0 -19 2 -27 5 -17 2 9 2 25 0 35 -3 9 -5 1 -5 -18z"/>
<path d="M3641 1169 c-1 -20 -3 -58 -6 -85 -4 -43 -3 -42 9 15 8 39 11 73 6
85 -7 17 -9 14 -9 -15z"/>
<path d="M5088 613 c6 -2 18 -2 25 0 6 3 1 5 -13 5 -14 0 -19 -2 -12 -5z"/>
</g>
</svg>
